<?xml version="1.0" encoding="utf-8"?>
<svg version="1.1" id="action" xmlns="http://www.w3.org/2000/svg" xmlns:xlink="http://www.w3.org/1999/xlink" x="0px" y="0px"
	 viewBox="0 0 16 16" enable-background="new 0 0 16 16" xml:space="preserve">
<g>
	<path d="M16,9V8h-2.022c-0.104-1.142-0.557-2.184-1.253-3.018l1.571-1.572l-0.707-0.707l-1.571,1.572
		C11.184,3.58,10.142,3.126,9,3.022V1H8v2.022C6.858,3.126,5.816,3.58,4.982,4.275L3.411,2.704L2.704,3.411l1.571,1.572
		C3.58,5.816,3.126,6.858,3.022,8H1v1h2.022c0.104,1.142,0.557,2.184,1.253,3.018l-1.572,1.571l0.707,0.707l1.572-1.571
		C5.816,13.421,6.858,13.874,8,13.978V16h1v-2.022c1.142-0.104,2.184-0.557,3.018-1.253l1.571,1.571l0.707-0.707l-1.571-1.571
		c0.696-0.834,1.149-1.876,1.253-3.018H16z M8.5,13C6.019,13,4,10.981,4,8.5S6.019,4,8.5,4S13,6.019,13,8.5S10.981,13,8.5,13z"/>
	<path d="M8.5,6.5c-1.103,0-2,0.897-2,2c0,1.103,0.897,2,2,2c1.103,0,2-0.897,2-2C10.5,7.397,9.603,6.5,8.5,6.5z
		 M8.5,9.5c-0.551,0-1-0.448-1-1c0-0.551,0.449-1,1-1c0.552,0,1,0.449,1,1C9.5,9.052,9.052,9.5,8.5,9.5z"/>
</g>
</svg>
